<svg xmlns="http://www.w3.org/2000/svg" width="512" height="512" viewBox="0 0 512 512" role="img" aria-labelledby="title desc">
  <title id="title">Blue Collar Techy mark</title>
  <desc id="desc">Orange gear mark with black B</desc>
  <rect width="512" height="512" fill="#08080d"/>
  <g class="orange" transform="translate(256 256)" fill="#ff6a1a">
    <g>
      <rect x="-25" y="-226" width="50" height="76" rx="8" transform="rotate(0)"/>
      <rect x="-25" y="-226" width="50" height="76" rx="8" transform="rotate(30)"/>
      <rect x="-25" y="-226" width="50" height="76" rx="8" transform="rotate(60)"/>
      <rect x="-25" y="-226" width="50" height="76" rx="8" transform="rotate(90)"/>
      <rect x="-25" y="-226" width="50" height="76" rx="8" transform="rotate(120)"/>
      <rect x="-25" y="-226" width="50" height="76" rx="8" transform="rotate(150)"/>
      <rect x="-25" y="-226" width="50" height="76" rx="8" transform="rotate(180)"/>
      <rect x="-25" y="-226" width="50" height="76" rx="8" transform="rotate(210)"/>
      <rect x="-25" y="-226" width="50" height="76" rx="8" transform="rotate(240)"/>
      <rect x="-25" y="-226" width="50" height="76" rx="8" transform="rotate(270)"/>
      <rect x="-25" y="-226" width="50" height="76" rx="8" transform="rotate(300)"/>
      <rect x="-25" y="-226" width="50" height="76" rx="8" transform="rotate(330)"/>
    </g>
    <circle r="174"/>
    <circle r="118" fill="#08080d"/>
    <circle r="92"/>
    <text x="0" y="48" text-anchor="middle" font-family="Arial Black, Impact, system-ui, sans-serif" font-size="154" font-weight="900" fill="#08080d">B</text>
  </g>
</svg>
